<svg viewBox="0 0 240 240" xmlns="http://www.w3.org/2000/svg">
<g fill="transparent" stroke="#ede4b5" stroke-width="2.8">
<path transform="translate(16.077)" d="m98.727 3q5.1962-3 10.392 4e-16l93.531 54q5.1962 3 5.1962 9v108q0 6-5.1962 9l-93.531 54q-5.1962 3-10.392 0l-93.531-54q-5.1962-3-5.1962-9v-108q0-6 5.1962-9z"/>
<path transform="translate(24.737 10)" d="m90.067 3q5.1962-3 10.392 4e-16l84.87 49q5.1962 3 5.1962 9v98q0 6-5.1962 9l-84.87 49q-5.1962 3-10.392 0l-84.87-49q-5.1962-3-5.1962-9v-98q0-6 5.1962-9z"/>
<path transform="translate(33.397 20)" d="m81.406 3q5.1962-3 10.392 0l76.21 44q5.1962 3 5.1962 9v88q0 6-5.1962 9l-76.21 44q-5.1962 3-10.392 0l-76.21-44q-5.1962-3-5.1962-9v-88q0-6 5.1962-9z"/>
<path transform="translate(42.058 30)" d="m72.746 3q5.1962-3 10.392 0l67.55 39q5.1962 3 5.1962 9v78q0 6-5.1962 9l-67.55 39q-5.1962 3-10.392 0l-67.55-39q-5.1962-3-5.1962-9v-78q0-6 5.1962-9z"/>
</g>
</svg>
