<svg version="1" xmlns="http://www.w3.org/2000/svg" width="933.333" height="933.333" viewBox="0 0 700.000000 700.000000"><path d="M344 9.4c-5.2 1.4-281.1 160.4-285.3 164.4-1.6 1.5-3.9 4.5-5 6.7l-2.2 4v331l2.2 4c3.4 6.3 6.4 8.5 30.3 22.3 12.4 7.1 73.8 42.5 136.5 78.8 62.7 36.2 116.2 66.9 118.8 68.3 6.6 3.3 14.8 3.3 21.4 0 2.6-1.4 56.1-32.1 118.8-68.3 62.7-36.3 124.1-71.7 136.5-78.8 23.9-13.8 26.9-16 30.3-22.3l2.2-4v-331l-2.2-4c-1.1-2.2-3.4-5.2-5-6.7-2.7-2.5-275.6-160.7-281.8-163.3-4.9-2.1-10.7-2.5-15.5-1.1zm16.4 22.1c2.5.9 11.4 5.5 19.8 10.4 189.6 109.3 237 136.9 240.5 139.8 2.7 2.1 5.4 5.8 7.5 10.1l3.3 6.7V350c0 143.6-.1 151.7-1.8 155.5-2.8 6.3-6.4 11-11 14.2-4.4 3.2-238.9 138.9-251.7 145.7-6.7 3.6-8.4 4-16 4.4-8.4.4-8.6.3-17-4C322.7 660 86.7 523.6 81.3 519.7c-4.6-3.2-8.2-7.9-11-14.2-1.7-3.8-1.8-11.9-1.8-155.5V198.5l3.3-6.7c2.1-4.3 4.8-8 7.5-10.2 3.5-2.8 48.7-29 245.6-142.7 5.2-3 11.3-6.2 13.5-7.1 5.2-2.1 16.1-2.3 22-.3z"/><path d="M339.5 40.4c-10.2 4.7-252.1 144.9-255.3 148-1.9 1.7-4.3 4.9-5.5 7.1l-2.2 4v301l2.2 4.1c2.5 4.6 7.2 9.1 13.5 12.7 2.4 1.4 50.9 29.4 107.8 62.3 56.9 32.8 110.9 64 120 69.2 21.1 12.2 23.3 13.2 30 13.2 6.7 0 8.9-1 30-13.2 9.1-5.2 63.1-36.4 120-69.2 56.9-32.9 105.4-60.9 107.8-62.3 6.3-3.6 11-8.1 13.5-12.7l2.2-4.1v-301l-2.2-4c-1.2-2.2-3.6-5.4-5.5-7.1-3.2-3.1-245.1-143.3-255.3-148-3.3-1.6-6.8-2.4-10.5-2.4s-7.2.8-10.5 2.4zM362 61.3c5.5 2.3 222.6 127.4 230.7 132.9 5 3.4 8.4 7.6 11.5 14.4l2.3 4.9v273l-3.3 6.7c-1.9 3.9-4.9 8.1-7.2 10-2.1 1.8-14.1 9.2-26.7 16.4-12.5 7.3-63.5 36.7-113.3 65.5-49.8 28.7-92.6 53.1-95.3 54.1-5.8 2.2-14.9 2.3-20.8.3-5.9-2.1-231.1-132.2-235.9-136.3-2.3-1.9-5.3-6.1-7.2-10l-3.3-6.7v-273l2.3-4.9c3.1-6.8 6.5-11 11.5-14.4 8-5.5 225.2-130.6 230.7-132.9 7.4-3.1 16.5-3.1 24 0z"/><path d="M340.5 68.9c-2.2 1-31.2 17.5-64.5 36.8-33.3 19.2-83.4 48.2-111.5 64.3-28 16.2-52.9 31.2-55.2 33.3-8.4 7.7-7.8-3.9-7.8 146.7 0 126.2.1 133.8 1.8 138.2 2.6 6.6 8 11.1 25.7 21.2 8.5 4.9 59.2 34.1 112.5 64.9 53.4 30.8 98.4 56.6 100.2 57.4 4.2 1.7 12.5 1.7 16.6-.1 8.2-3.4 229.6-132.1 232.9-135.4 7.8-7.5 7.3 3.4 7.3-146.2 0-146.8.4-137.8-6.3-145.2-4-4.4.2-1.9-93.2-55.8-39.3-22.7-85.9-49.6-103.5-59.8-17.6-10.2-33.8-19.3-36-20.3-5.2-2.4-13.8-2.4-19 0zm18.8 20.5c2.5.7 50.1 27.6 105.9 59.7 110.5 63.8 109.5 63 113.6 74.2l2.2 5.8v241.8l-2.2 5.8c-4 10.9-3.3 10.5-112.8 73.6-55.3 31.9-102.7 58.8-105.5 59.8-2.7 1-7.5 1.8-10.5 1.8s-7.7-.8-10.5-1.8c-2.7-1-50.2-27.9-105.5-59.8-109.5-63.1-108.8-62.7-112.8-73.6l-2.2-5.8V229.1l2.2-5.8c4.1-11.2 3.1-10.4 113.7-74.2 55.7-32.1 103.2-59 105.4-59.7 5.6-1.7 13.3-1.7 19 0z"/><path d="M342 97.4c-4.1 1.5-201.9 115.6-206.6 119.2-1.8 1.3-4.4 4.7-5.8 7.6l-2.6 5.2v120.5c0 114.6.1 120.8 1.9 124.6 1 2.2 3.2 5.4 4.9 7.1 3.2 3.3 203.3 119.3 209.1 121.2 4.3 1.5 9.9 1.5 14.2 0 5.8-1.9 205.9-117.9 209.1-121.2 1.7-1.7 3.9-4.9 4.9-7.1 1.8-3.8 1.9-10 1.9-124.6V229.4l-2.6-5.2c-1.4-2.9-4-6.3-5.8-7.6-5.2-4-202.8-117.7-207-119.2-4.7-1.7-10.9-1.7-15.6 0z"/></svg>